# xmcd CD database file
#
# Track frame offsets:
#	150
#	45980
#	87190
#	127693
#	154093
#	173710
#	203943
#	239330
#	268565
#	273985
#
# Disc length: 4070 seconds
#
# Revision: 1
# Processed by: cddbd v1.5.2PL0 Copyright (c) Steve Scherf et al.
# Submitted via: CDex 1.51
#
DISCID=790fe40a
DTITLE=Fujiwara, Kiyoto and MG4 Special - Live at Sweet Basil [Feb. 21, 1994] (Transheart TDCN-5164)
DYEAR=1994
DGENRE=Jazz
TTITLE0=Freedom Jazz Dance (Eddie Harris)
TTITLE1=No Problem (K. Fujiwara)
TTITLE2=Manhattan Tango (K. Fujiwara)
TTITLE3=Boy and Beauty (K. Fujiwara)
TTITLE4=Albert and Arturo (K. Fujiwara)
TTITLE5=Rain (K. Fujiwara)
TTITLE6=Angry Squire (K. Fujiwara)
TTITLE7=Blue Bossa (Kenny Dorham)
TTITLE8=Theme Song (K. Fujiwara)
TTITLE9=Night and Day (K. Fujiwara)
EXTD=YEAR: 1994
EXTT0=
EXTT1=
EXTT2=
EXTT3=
EXTT4=
EXTT5=
EXTT6=
EXTT7=
EXTT8=
EXTT9=
PLAYORDER=
